<svg width="15" height="14" viewBox="0 0 15 14" fill="none" xmlns="http://www.w3.org/2000/svg">
<path d="M6.5625 3.9375C6.5625 3.46354 6.44401 3.02604 6.20703 2.625C5.97005 2.22396 5.65104 1.90495 5.25 1.66797C4.83073 1.43099 4.39323 1.3125 3.9375 1.3125C3.48177 1.3125 3.04427 1.43099 2.625 1.66797C2.22396 1.90495 1.90495 2.22396 1.66797 2.625C1.43099 3.02604 1.3125 3.46354 1.3125 3.9375C1.3125 4.41146 1.43099 4.84896 1.66797 5.25C1.90495 5.65104 2.22396 5.97005 2.625 6.20703C3.04427 6.44401 3.48177 6.5625 3.9375 6.5625C4.39323 6.5625 4.83073 6.44401 5.25 6.20703C5.65104 5.97005 5.97005 5.65104 6.20703 5.25C6.44401 4.84896 6.5625 4.41146 6.5625 3.9375ZM7.76562 4.8125C7.5651 5.70573 7.10938 6.4349 6.39844 7C5.70573 7.5651 4.88542 7.85677 3.9375 7.875C2.82552 7.83854 1.89583 7.45573 1.14844 6.72656C0.419271 5.97917 0.0364583 5.04948 0 3.9375C0.0364583 2.82552 0.419271 1.89583 1.14844 1.14844C1.89583 0.419271 2.82552 0.0364583 3.9375 0C4.88542 0.0182292 5.70573 0.309896 6.39844 0.875C7.10938 1.4401 7.5651 2.16927 7.76562 3.0625H9.73438C9.98958 2.78906 10.3177 2.64323 10.7188 2.625H13.5625C13.9271 2.64323 14.237 2.77083 14.4922 3.00781C14.7292 3.26302 14.8568 3.57292 14.875 3.9375C14.8568 4.30208 14.7292 4.61198 14.4922 4.86719C14.237 5.10417 13.9271 5.23177 13.5625 5.25H10.7188C10.3177 5.23177 9.98958 5.08594 9.73438 4.8125H7.76562ZM3.9375 2.1875C4.59375 2.20573 5.09505 2.4974 5.44141 3.0625C5.76953 3.64583 5.76953 4.22917 5.44141 4.8125C5.09505 5.3776 4.59375 5.66927 3.9375 5.6875C3.28125 5.66927 2.77995 5.3776 2.43359 4.8125C2.10547 4.22917 2.10547 3.64583 2.43359 3.0625C2.77995 2.4974 3.28125 2.20573 3.9375 2.1875ZM10.9375 6.5625C11.3385 6.59896 11.5573 6.81771 11.5938 7.21875V7.4375H14.2188C14.6198 7.47396 14.8385 7.69271 14.875 8.09375C14.8385 8.49479 14.6198 8.71354 14.2188 8.75H7.65625C7.25521 8.71354 7.03646 8.49479 7 8.09375C7.03646 7.69271 7.25521 7.47396 7.65625 7.4375H10.2812V7.21875C10.3177 6.81771 10.5365 6.59896 10.9375 6.5625ZM7.875 12.6875V9.625H14V12.6875C13.9818 13.0521 13.8542 13.362 13.6172 13.6172C13.362 13.8542 13.0521 13.9818 12.6875 14H9.1875C8.82292 13.9818 8.51302 13.8542 8.25781 13.6172C8.02083 13.362 7.89323 13.0521 7.875 12.6875ZM1.3125 8.75H3.5H3.9375H4.8125C5.17708 8.76823 5.48698 8.89583 5.74219 9.13281C5.97917 9.38802 6.10677 9.69792 6.125 10.0625C6.10677 10.4271 5.97917 10.737 5.74219 10.9922C5.48698 11.2292 5.17708 11.3568 4.8125 11.375H4.375C4.375 11.6302 4.29297 11.8398 4.12891 12.0039C3.96484 12.168 3.75521 12.25 3.5 12.25H1.75C1.49479 12.25 1.28516 12.168 1.12109 12.0039C0.957031 11.8398 0.875 11.6302 0.875 11.375V9.1875C0.893229 8.91406 1.03906 8.76823 1.3125 8.75ZM4.8125 10.5C5.08594 10.4818 5.23177 10.3359 5.25 10.0625C5.23177 9.78906 5.08594 9.64323 4.8125 9.625H4.375V10.5H4.8125ZM0.65625 12.6875H5.46875C5.86979 12.724 6.08854 12.9427 6.125 13.3438C6.08854 13.7448 5.86979 13.9635 5.46875 14H0.65625C0.255208 13.9635 0.0364583 13.7448 0 13.3438C0.0364583 12.9427 0.255208 12.724 0.65625 12.6875Z" fill="#CFB072"/>
</svg>
