<svg width="16" height="11" viewBox="0 0 16 11" fill="none" xmlns="http://www.w3.org/2000/svg">
<path d="M0 1.77778C0.0185185 1.27778 0.194444 0.861111 0.527778 0.527778C0.861111 0.194444 1.27778 0.0185185 1.77778 0H8.88889C9.38889 0.0185185 9.80556 0.194444 10.1389 0.527778C10.4722 0.861111 10.6481 1.27778 10.6667 1.77778V8.88889C10.6481 9.38889 10.4722 9.80556 10.1389 10.1389C9.80556 10.4722 9.38889 10.6481 8.88889 10.6667H1.77778C1.27778 10.6481 0.861111 10.4722 0.527778 10.1389C0.194444 9.80556 0.0185185 9.38889 0 8.88889V1.77778ZM15.5278 1C15.8241 1.16667 15.9815 1.42593 16 1.77778V8.88889C15.9815 9.24074 15.8241 9.5 15.5278 9.66667C15.213 9.83333 14.9074 9.82407 14.6111 9.63889L11.9444 7.86111L11.5556 7.58333V7.11111V3.55556V3.08333L11.9444 2.80556L14.6111 1.02778C14.9074 0.861111 15.213 0.851852 15.5278 1Z" fill="#CFB072"/>
</svg>
